# xmcd
#
# Track frame offsets:
#	182
#	25172
#	48105
#	69637
#	84955
#	115007
#	132725
#	157255
#	174465
#	192062
#	217102
#	233612
#
# Disc length: 3414 seconds
#
# Revision: 3
# Processed by: cddbd v1.4PL0 Copyright (c) Steve Scherf et al.
# Submitted via: EasyCDDAExtractor 5.0.7
#
DISCID=a00d540c
DTITLE=Danny Gatton - Cruisin' Deuces
DYEAR=1993
DGENRE=Blues
TTITLE0=Funhouse
TTITLE1=Sun Medley (Mystery Train, My Baby Left Me, That's All Right)
TTITLE2=Harlem Nocturne
TTITLE3=Thirteen Women
TTITLE4=Sky King
TTITLE5=Beat Of The Night
TTITLE6=So Good
TTITLE7=It Doesn't Matter Anymore
TTITLE8=Puddin' And Pie
TTITLE9=Tragedy
TTITLE10=Cruisin' Deuces
TTITLE11=Satisfied Mind
EXTD=YEAR: 1993 ID3G: 17
EXTT0=
EXTT1=
EXTT2=
EXTT3=
EXTT4=
EXTT5=
EXTT6=
EXTT7=
EXTT8=
EXTT9=
EXTT10=
EXTT11=
PLAYORDER=
